<svg id="Layer_1" data-name="Layer 1" xmlns="http://www.w3.org/2000/svg" viewBox="0 0 38 24"><defs><style>.cls-1{fill:#fff;}.cls-2{fill:#a8aaad;opacity:0.25;isolation:isolate;}.cls-3{fill:#ffcb05;}.cls-4{fill:#00a4e0;}.cls-5{fill:#ef4123;}</style></defs><title>celo</title><path class="cls-1" d="M35.6,24H2.4A2.43,2.43,0,0,1,0,21.6V2.4A2.43,2.43,0,0,1,2.4,0H35.6A2.43,2.43,0,0,1,38,2.4V21.6A2.43,2.43,0,0,1,35.6,24Z" transform="translate(0)"/><path class="cls-2" d="M35.6,24H2.4A2.43,2.43,0,0,1,0,21.6V2.4A2.43,2.43,0,0,1,2.4,0H35.5A2.46,2.46,0,0,1,38,2.4V21.6A2.43,2.43,0,0,1,35.6,24ZM2.4,1A1.37,1.37,0,0,0,1,2.4V21.6A1.37,1.37,0,0,0,2.4,23H35.5A1.45,1.45,0,0,0,37,21.6V2.4A1.37,1.37,0,0,0,35.6,1Z" transform="translate(0)"/><path class="cls-3" d="M9.36,8.73a3.24,3.24,0,0,1,4.21,2.43l2.22-.45a5.51,5.51,0,0,0-5.4-4.41,5.56,5.56,0,0,0-1.74.28Z" transform="translate(0)"/><path class="cls-4" d="M6.74,15.93l1.51-1.7a3.22,3.22,0,0,1,0-4.85L6.74,7.68a5.5,5.5,0,0,0,0,8.25" transform="translate(0)"/><path class="cls-5" d="M13.57,12.45a3.24,3.24,0,0,1-4.21,2.43L8.65,17a5.56,5.56,0,0,0,1.74.28,5.51,5.51,0,0,0,5.4-4.4Z" transform="translate(0)"/><path d="M17.73,14.3a3.61,3.61,0,0,1-.23-.44,3.38,3.38,0,0,1,1.69-4.4,3.4,3.4,0,0,1,3.11.23,3.32,3.32,0,0,1,1.38,1.67l.12.3Zm2-3.52a1.66,1.66,0,0,0-1,1.77l3.05-1.31A1.62,1.62,0,0,0,19.76,10.78Zm2.42,2.85h0l-.06-.05a1.75,1.75,0,0,1-.82.69,1.59,1.59,0,0,1-1.77-.18l0,.07h0l-.78,1.15a2.87,2.87,0,0,0,.62.34,3.2,3.2,0,0,0,2.59,0,3.25,3.25,0,0,0,1.44-1.21Z" transform="translate(0)"/><path d="M25.92,7.76V14.2l1,.4-.57,1.33-1.1-.46A1.26,1.26,0,0,1,24.7,15a1.47,1.47,0,0,1-.21-.8V7.76Z" transform="translate(0)"/><path d="M28.51,12.56a1.82,1.82,0,0,1,.63-1.38l-1-1.14a3.34,3.34,0,0,0,0,5l1-1.14A1.84,1.84,0,0,1,28.51,12.56Z" transform="translate(0)"/><path d="M30.33,14.38a1.79,1.79,0,0,1-.57-.09l-.49,1.46a3.37,3.37,0,0,0,4.36-2.51l-1.51-.31A1.81,1.81,0,0,1,30.33,14.38Z" transform="translate(0)"/><path d="M30.34,9.2a3.47,3.47,0,0,0-1.07.17l.49,1.46a1.86,1.86,0,0,1,.58-.1,1.81,1.81,0,0,1,1.78,1.47l1.51-.31A3.36,3.36,0,0,0,30.34,9.2Z" transform="translate(0)"/></svg>