<?xml version="1.0" encoding="UTF-8"?>
<!DOCTYPE svg PUBLIC "-//W3C//DTD SVG 1.1//EN" "http://www.w3.org/Graphics/SVG/1.1/DTD/svg11.dtd">
<!-- Creator: CorelDRAW 2020 (64 Bit) -->
<svg xmlns="http://www.w3.org/2000/svg" xml:space="preserve" width="10.58mm" height="7.9107mm" version="1.1" style="shape-rendering:geometricPrecision; text-rendering:geometricPrecision; image-rendering:optimizeQuality; fill-rule:evenodd; clip-rule:evenodd"
viewBox="0 0 16.39 12.25"
 xmlns:xlink="http://www.w3.org/1999/xlink"
 xmlns:xodm="http://www.corel.com/coreldraw/odm/2003">
 <defs>
  <style type="text/css">
   <![CDATA[
    .fil0 {fill:#053D6B}
    .fil1 {fill:#0D73A8}
    .fil2 {fill:#B56B1C}
    .fil3 {fill:#F5CC0D}
   ]]>
  </style>
 </defs>
 <g id="Camada_x0020_1">
  <metadata id="CorelCorpID_0Corel-Layer"/>
  <path class="fil0" d="M11.94 0.01c-1.6,-0.01 -3.16,0 -4.76,-0.01 1.02,1.4 2.1,2.67 3.12,4.07 0.83,-1.01 1.52,-2.01 2.35,-3.02 0.32,-0.48 -0.15,-1.06 -0.71,-1.04z"/>
  <path class="fil1" d="M12.88 8.14c-1.9,0 -3.8,0 -5.7,0 1.45,-1.82 4.04,-5.28 5.49,-7.1 0.25,-0.5 -0.1,-0.92 -0.6,-1.03 0.89,0.02 1.2,0.01 1.55,0.34 0.88,1.13 1.73,2.3 2.62,3.43 0.26,0.32 0.15,0.54 -0.12,0.86 -0.76,0.99 -1.51,1.97 -2.27,2.96 -0.23,0.27 -0.52,0.48 -0.98,0.55z"/>
  <path class="fil2" d="M4.41 12.25c1.6,0.01 3.19,-0.02 4.78,-0.01 -1.02,-1.4 -2.07,-2.66 -3.09,-4.05 -0.83,1.01 -1.54,2.02 -2.37,3.03 -0.26,0.45 0.05,0.96 0.68,1.04z"/>
  <path class="fil3" d="M3.51 4.12c1.9,0 3.8,0 5.7,0 -1.45,1.82 -4.04,5.28 -5.49,7.1 -0.25,0.5 0.1,0.92 0.6,1.03 -0.89,-0.02 -1.2,-0.01 -1.55,-0.34 -0.88,-1.13 -1.73,-2.3 -2.62,-3.43 -0.26,-0.32 -0.15,-0.54 0.12,-0.86 0.76,-0.99 1.51,-1.97 2.27,-2.96 0.23,-0.27 0.52,-0.48 0.98,-0.55z"/>
 </g>
</svg>
