<?xml version="1.0" encoding="UTF-8"?>
<!DOCTYPE svg PUBLIC "-//W3C//DTD SVG 1.1//EN" "http://www.w3.org/Graphics/SVG/1.1/DTD/svg11.dtd">
<!-- Creator: CorelDRAW 2020 (64 Bit) -->
<svg xmlns="http://www.w3.org/2000/svg" xml:space="preserve" width="3.5914mm" height="1.9899mm" version="1.1" style="shape-rendering:geometricPrecision; text-rendering:geometricPrecision; image-rendering:optimizeQuality; fill-rule:evenodd; clip-rule:evenodd"
viewBox="0 0 1.67 0.93"
 xmlns:xlink="http://www.w3.org/1999/xlink"
 xmlns:xodm="http://www.corel.com/coreldraw/odm/2003">
 <defs>
  <style type="text/css">
   <![CDATA[
    .str0 {stroke:#E6E6E6;stroke-width:0.04;stroke-miterlimit:22.9256}
    .fil0 {fill:none;fill-rule:nonzero}
    .fil1 {fill:white}
    .fil4 {fill:#FEFEFE;fill-rule:nonzero}
    .fil3 {fill:#00AFEF;fill-rule:nonzero}
    .fil2 {fill:#2905A1;fill-rule:nonzero}
   ]]>
  </style>
 </defs>
 <g id="Camada_x0020_1">
  <metadata id="CorelCorpID_0Corel-Layer"/>
  <g>
   <path class="fil0 str0" d="M0.13 0.01l1.41 0c0.07,0 0.12,0.05 0.12,0.12l0 0.67c0,0.07 -0.05,0.12 -0.12,0.12l-1.41 0c-0.07,0 -0.12,-0.05 -0.12,-0.12l0 -0.67c0,-0.07 0.05,-0.12 0.12,-0.12z"/>
   <path id="1" class="fil1" d="M0.13 0.01l1.41 0c0.07,0 0.12,0.05 0.12,0.12l0 0.67c0,0.07 -0.05,0.12 -0.12,0.12l-1.41 0c-0.07,0 -0.12,-0.05 -0.12,-0.12l0 -0.67c0,-0.07 0.05,-0.12 0.12,-0.12z"/>
  </g>
  <g>
   <g id="_1233913295376">
    <path class="fil2" d="M0.66 0.46l0 0.01c0,0.09 -0.09,0.16 -0.23,0.16 -0.11,0 -0.19,-0.04 -0.22,-0.1 -0.01,-0.02 -0.01,-0.04 -0.01,-0.06 0,-0 0,-0.01 0,-0.01 0,-0 0,-0 0,-0.01 0,-0.04 0.03,-0.08 0.07,-0.1 0.02,-0.01 0.04,-0.02 0.07,-0.03 0.03,-0.01 0.06,-0.01 0.09,-0.01 0.13,0 0.23,0.07 0.23,0.15z"/>
    <path class="fil3" d="M0.66 0.46c0,0.08 -0.1,0.14 -0.22,0.14 -0.09,0 -0.16,-0.03 -0.2,-0.08 -0.02,-0.02 -0.03,-0.04 -0.03,-0.07 -0,-0 -0,-0 -0,-0 0,-0.04 0.03,-0.08 0.08,-0.11 0,-0 0.01,-0 0.01,-0 0,-0 0.01,-0 0.01,-0.01 0.01,-0 0.02,-0.01 0.03,-0.01 0.03,-0.01 0.06,-0.01 0.1,-0.01 0.12,0 0.22,0.06 0.22,0.14z"/>
    <path class="fil2" d="M0.43 0.51c-0,0.02 -0.01,0.02 -0.02,0.03 -0.01,0 -0.04,0 -0.07,0.01 -0.03,0 -0.05,-0 -0.07,-0 -0.01,-0 -0.03,-0.01 -0.03,-0.01 -0,0 -0.01,0 -0.01,0.01 0,0 -0.01,-0.01 -0.02,-0.01 -0.01,-0.02 -0.01,-0.04 -0.01,-0.06 0,-0 0,-0.01 0,-0.01 0,-0 0,-0 0,-0.01 0.01,-0 0.02,-0 0.03,-0 0.02,-0 0.04,0 0.07,0.01 0.03,0.01 0.05,0.01 0.05,0.01 -0,-0.01 -0,-0.03 -0,-0.05 0,-0.02 -0,-0.03 -0,-0.04 -0,-0.01 -0.01,-0.02 -0.01,-0.02 0,0 -0,0 -0.01,0 -0.01,0 -0.01,-0 -0.02,-0.01 -0.01,-0 -0.02,-0.01 -0.03,-0.01 -0,-0 -0,-0 -0.01,-0 -0.01,-0 -0.01,-0.01 -0.01,-0.02 0,-0.01 0.01,-0.01 0.01,-0.01 0,0 -0,-0 -0,-0.01 0,-0.01 0.01,-0.01 0.01,-0.01 0.01,-0 0.01,-0.01 0.02,-0.01 0,-0 0.01,-0 0.01,-0 0,0 0.01,0 0.01,0 0,0 0.01,0.01 0.01,0.01 0,0 0.01,0.01 0.01,0.01 0.01,0.01 0.02,0.02 0.02,0.03 0.01,0.01 0.02,0.03 0.03,0.05 0.01,0.02 0.02,0.06 0.03,0.07 0,0.01 0.01,0.03 0.01,0.05z"/>
    <path class="fil4" d="M0.42 0.52c-0.01,0.01 -0.01,0.01 -0.03,0.01 -0.01,0 -0.04,0 -0.05,0 -0.01,-0 -0.02,-0 -0.05,-0 -0.04,-0 -0.04,-0.01 -0.05,-0.01 -0,-0 -0.01,0 -0.01,0 -0.02,-0.02 -0.03,-0.04 -0.03,-0.07 0.02,-0 0.05,-0 0.08,0.01 0.05,0.01 0.07,0.03 0.07,0.03 0,0 -0.01,-0.01 -0.01,-0.03 -0,-0.02 -0,-0.05 -0,-0.07 -0,-0.02 -0.01,-0.03 -0.01,-0.03 -0,-0.01 -0.01,-0 -0.01,-0 -0,0 -0.02,-0 -0.02,-0.01 -0,-0 -0.01,-0 -0.01,-0 -0.01,-0 -0.01,-0 -0.01,-0 -0,-0 -0.01,-0 -0.01,-0.01 0,-0 0.01,-0 0.02,0 0,0 0.01,0 0.01,0 0,-0 0,-0 0,-0 0.01,-0 0.01,-0 0.01,-0 0,0 0.01,0.01 0.01,0.01 0,0 0.01,-0 0.01,-0 0,0 -0.01,-0.01 -0.02,-0.01 -0,-0 -0,-0 -0,-0 -0,-0 -0.01,-0.01 -0,-0.01 0,-0 0,-0 0,-0.01 -0,0 -0,0 -0,0 -0,0 -0,0 -0,0 0,0 -0,-0 -0,-0 -0,-0 -0,-0.01 -0,-0.01 0,0 -0,0.01 -0,0.01 0,0 -0,0 -0.01,0 0,0 0,0 0,0 0,0 -0,0 -0,0 0,0 0,-0 0,-0 0,-0 0,-0 0,-0 0,0 0,0 0,0 0,0 -0,0 -0,0 -0,0 -0.01,0 -0.01,0 -0,-0 -0.01,-0 -0.01,-0.01 -0,-0 -0.01,-0.01 -0.01,-0.01 0,-0 0.01,-0.01 0.01,-0.01 0,-0 0.01,-0.01 0.01,-0.01 0,-0 0.01,-0 0.01,0 0,0 0.02,0.02 0.03,0.03 0,0 0,0 0,0 0,0 0.01,0.01 0.02,0.02 0,0.01 0.02,0.05 0.03,0.07 0.01,0.02 0.03,0.06 0.03,0.07 0,0.01 0.01,0.02 0,0.03z"/>
    <path class="fil2" d="M0.43 0.51c0,0.02 0.01,0.02 0.02,0.03 0.01,0 0.04,0 0.07,0.01 0.03,0 0.05,-0 0.07,-0 0.01,-0 0.03,-0.01 0.03,-0.01 0,0 0.01,0 0.01,0.01 0,0 0.01,-0.01 0.02,-0.01 0.01,-0.02 0.01,-0.04 0.01,-0.06 0,-0 -0,-0.01 -0,-0.01 0,-0 -0,-0 -0,-0.01 -0.01,-0 -0.02,-0 -0.03,-0 -0.02,-0 -0.04,0 -0.07,0.01 -0.03,0.01 -0.05,0.01 -0.05,0.01 0,-0.01 0,-0.03 0,-0.05 -0,-0.02 0,-0.03 0,-0.04 0,-0.01 0.01,-0.02 0.01,-0.02 0,0 0,0 0.01,0 0.01,0 0.01,-0 0.02,-0.01 0.01,-0 0.02,-0.01 0.03,-0.01 0,-0 0,-0 0,-0 0.01,-0 0.01,-0.01 0.01,-0.02 -0,-0.01 -0.01,-0.01 -0.01,-0.01 0,0 0,-0 0,-0.01 -0,-0.01 -0.01,-0.01 -0.01,-0.01 -0.01,-0 -0.01,-0.01 -0.02,-0.01 -0.01,-0 -0.01,-0 -0.02,0 -0,0 -0.01,0.01 -0.01,0.01 -0,0 -0.01,0.01 -0.01,0.01 -0.01,0.01 -0.02,0.02 -0.02,0.03 -0.01,0.01 -0.02,0.03 -0.03,0.05 -0.01,0.02 -0.02,0.06 -0.03,0.07 -0,0.01 -0.01,0.03 -0.01,0.05z"/>
    <path class="fil4" d="M0.44 0.52c0.01,0.01 0.01,0.01 0.03,0.01 0.01,0 0.04,0 0.05,0 0.01,-0 0.02,-0 0.05,-0 0.04,-0 0.04,-0.01 0.05,-0.01 0,-0 0.01,0 0.01,0 0.02,-0.02 0.03,-0.04 0.03,-0.07 -0.02,-0 -0.05,-0 -0.08,0.01 -0.05,0.01 -0.07,0.03 -0.07,0.03 0,0 0.01,-0.01 0.01,-0.03 0,-0.02 0,-0.05 0,-0.07 0,-0.02 0.01,-0.03 0.01,-0.03 0,-0.01 0.01,-0 0.01,-0 0,0 0.02,-0 0.02,-0.01 0,-0 0.01,-0 0.01,-0 0.01,-0 0.01,-0 0.01,-0 0,-0 0.01,-0 0.01,-0.01 -0,-0 -0.01,-0 -0.02,0 -0,0 -0.01,0 -0.01,0 -0,-0 -0,-0 -0,-0 -0.01,-0 -0.01,-0 -0.01,-0 -0,0 -0.01,0.01 -0.01,0.01 -0,0 -0.01,-0 -0.01,-0 0,0 0.01,-0.01 0.02,-0.01 0,-0 0,-0 0,-0 0,-0 0.01,-0.01 0,-0.01 -0,-0 -0,-0 -0,-0 0,0 0,0 0,0 0,0 0,0 0,0 0,0 0,-0 0,-0 0,-0 0,-0.01 0,-0.01 0,0 0,0.01 0,0.01 0,0 0,0 0.01,0 0,0 -0,0 -0,0 0,0 0,0 0,0 0,0 -0,-0 -0,-0 -0,-0 -0,-0 -0,-0 -0,0 -0,0 -0,0 -0,0 0,0 0,0 0,0 0,0 0.01,0 0,-0 0.01,-0 0.01,-0.01 0,-0 0.01,-0.01 0.01,-0.01 -0,-0 -0.01,-0.01 -0.01,-0.01 -0,-0 -0.01,-0.01 -0.01,-0.01 -0,-0 -0.01,-0 -0.01,0 -0,0 -0.02,0.02 -0.03,0.03 -0,0 -0,0 -0,0 -0,0 -0.01,0.01 -0.02,0.02 -0,0.01 -0.02,0.05 -0.03,0.07 -0.01,0.02 -0.03,0.06 -0.03,0.07 -0,0.01 -0.01,0.02 0,0.03z"/>
   </g>
   <path class="fil2" d="M1.44 0.42c-0,0.01 -0.01,0.01 -0.02,0.01 -0.01,0 -0.01,-0 -0.02,-0.01 -0,-0.01 -0.01,-0.01 -0.01,-0.02 0,-0.01 0,-0.02 0.01,-0.02 0,-0.01 0.01,-0.01 0.02,-0.01 0.01,0 0.01,0 0.02,0.01 0,0.01 0.01,0.01 0.01,0.02 0,0.01 -0,0.02 -0.01,0.02zm0.02 -0.06c-0.01,-0.01 -0.02,-0.02 -0.04,-0.02 -0.02,0 -0.03,0.01 -0.04,0.02 -0.01,0.01 -0.01,0.02 -0.01,0.04 0,0.01 0,0.03 0.01,0.04 0.01,0.01 0.02,0.02 0.04,0.02 0.02,0 0.03,-0.01 0.04,-0.02 0.01,-0.01 0.01,-0.02 0.01,-0.04 0,-0.01 -0,-0.03 -0.01,-0.04z"/>
   <path class="fil2" d="M1.23 0.4c-0,0.01 -0,0.01 -0.01,0.02 -0,0 -0.01,0 -0.02,0 -0,0 -0.01,-0 -0.01,-0 -0,-0 -0,-0.01 -0,-0.01 0,-0.01 0,-0.01 0.01,-0.01 0,-0 0.01,-0 0.01,-0l0.01 -0c0,-0 0.01,-0 0.01,-0 0,-0 0,-0 0.01,-0l0 0.01zm0.01 -0.06c-0.01,-0 -0.02,-0.01 -0.03,-0.01 -0.02,0 -0.03,0 -0.04,0.01 -0,0.01 -0.01,0.01 -0.01,0.02l0.03 0c0,-0 0,-0.01 0,-0.01 0,-0 0.01,-0 0.01,-0 0.01,0 0.01,0 0.01,0 0,0 0,0 0,0.01 0,0 -0,0.01 -0.01,0.01 -0,0 -0.01,0 -0.01,0l-0.01 0c-0.01,0 -0.02,0 -0.02,0.01 -0.01,0.01 -0.01,0.01 -0.01,0.03 0,0.01 0,0.02 0.01,0.02 0.01,0.01 0.01,0.01 0.02,0.01 0.06,0 0.06,-0.03 0.06,-0.04l0 -0.04c0,-0.01 -0,-0.02 -0.01,-0.02z"/>
   <path class="fil2" d="M1.11 0.36c0.01,0 0.01,0 0.01,0.01 0,0 0,0.01 0,0.01l0.03 0c-0,-0.01 -0.01,-0.02 -0.01,-0.03 -0.01,-0.01 -0.02,-0.01 -0.03,-0.01 -0.02,0 -0.03,0 -0.04,0.01 -0.01,0.01 -0.01,0.02 -0.01,0.04 0,0.02 0,0.03 0.01,0.04 0.01,0.01 0.02,0.01 0.04,0.01 0.02,0 0.03,-0.01 0.04,-0.02 0.01,-0.01 0.01,-0.01 0.01,-0.02l-0.03 0c-0,0.01 -0,0.01 -0,0.01 -0,0 -0.01,0 -0.01,0 -0.01,0 -0.02,-0 -0.02,-0.01 -0,-0 -0,-0.01 -0,-0.02 0,-0.01 0,-0.01 0,-0.02 0,-0.01 0.01,-0.01 0.02,-0.01z"/>
   <path class="fil2" d="M1.06 0.34c-0.06,0 -0.05,0.05 -0.05,0.05l0 0.05 0.03 0 0 -0.05c0,-0.01 0,-0.01 0,-0.02 0,-0.01 0.01,-0.01 0.02,-0.01 0,0 0,0 0,0 0,0 0,0 0,0l0 -0.03c-0,-0 -0,-0 -0,-0 -0,0 -0,-0 -0,-0z"/>
   <path class="fil2" d="M0.92 0.37c0,-0 0.01,-0.01 0.02,-0.01 0.01,0 0.01,0 0.02,0.01 0,0 0.01,0.01 0.01,0.02l-0.04 0c0,-0.01 0,-0.01 0.01,-0.02zm0.04 0.05c-0,0 -0,0 -0,0 -0,0 -0.01,0 -0.01,0 -0.01,0 -0.01,-0 -0.01,-0 -0.01,-0 -0.01,-0.01 -0.01,-0.02l0.07 0c0,-0.01 -0,-0.02 -0,-0.02 -0,-0.01 -0,-0.01 -0.01,-0.02 -0,-0.01 -0.01,-0.01 -0.02,-0.01 -0.01,-0 -0.01,-0 -0.02,-0 -0.01,0 -0.03,0 -0.04,0.01 -0.01,0.01 -0.01,0.02 -0.01,0.04 0,0.02 0.01,0.03 0.02,0.04 0.01,0.01 0.02,0.01 0.04,0.01 0.02,0 0.03,-0 0.04,-0.01 0,-0.01 0.01,-0.01 0.01,-0.02l-0.03 0z"/>
   <path class="fil2" d="M0.88 0.44l-0.02 0 0 -0.06c0,-0.01 -0,-0.02 -0.02,-0.02 -0.01,0 -0.02,0.01 -0.02,0.02l0 0.06 -0.02 0 0 -0.06c0,-0.01 -0,-0.02 -0.02,-0.02 -0.01,0 -0.02,0.01 -0.02,0.02l0 0.06 -0.02 0 0 -0.06c0,-0.02 0.02,-0.04 0.04,-0.04 0.01,0 0.02,0.01 0.03,0.01 0.01,-0.01 0.02,-0.01 0.03,-0.01 0.03,0 0.04,0.02 0.04,0.04l0 0.06z"/>
   <path class="fil2" d="M1.33 0.42c-0,0.01 -0.01,0.01 -0.02,0.01 -0.01,0 -0.01,-0 -0.02,-0.01 -0,-0.01 -0.01,-0.01 -0.01,-0.02 0,-0.01 0,-0.02 0.01,-0.02 0,-0.01 0.01,-0.01 0.02,-0.01 0.01,0 0.01,0 0.01,0 0.01,0.01 0.01,0.01 0.01,0.03 0,0.01 -0,0.02 -0.01,0.02zm0.03 -0.11c0,0 -0.03,-0 -0.03,0.02l0 0.03c-0,-0 -0.01,-0.01 -0.01,-0.01 -0,-0 -0.01,-0 -0.02,-0 -0.01,0 -0.02,0 -0.03,0.01 -0.01,0.01 -0.01,0.02 -0.01,0.04 0,0.01 0,0.03 0.01,0.04 0.01,0.01 0.02,0.01 0.04,0.01 0.05,0 0.05,-0.04 0.05,-0.04l0 -0.1z"/>
   <path class="fil3" d="M0.97 0.54c0,-0.01 -0,-0.02 -0.01,-0.02 -0,-0.01 -0.01,-0.01 -0.02,-0.01 -0.01,0 -0.01,0 -0.02,0.01 -0,0 -0.01,0.01 -0.01,0.02 0,0.01 0,0.02 0.01,0.02 0,0.01 0.01,0.01 0.02,0.01 0.01,0 0.01,-0 0.02,-0.01 0,-0.01 0.01,-0.01 0.01,-0.02zm-0.04 0.07c0,0 -0,0.01 -0,0.01 -0,0 -0.01,0 -0.01,0l-0.01 0 0 -0.09c0,-0.02 0.01,-0.03 0.02,-0.04 0.01,-0 0.02,-0.01 0.03,-0.01 0.01,0 0.03,0 0.03,0.01 0.01,0.01 0.01,0.02 0.01,0.04 0,0.02 -0,0.03 -0.01,0.04 -0.01,0.01 -0.02,0.01 -0.03,0.01 -0.01,0 -0.01,-0 -0.02,-0 -0.01,-0 -0.01,-0.01 -0.01,-0.01l0 0.03z"/>
   <path class="fil3" d="M1.13 0.54c0,0.02 0.01,0.03 0.02,0.03 0.01,0 0.02,-0 0.02,-0.01 0,-0 0,-0.01 0,-0.01 0,-0.01 0,-0.01 0,-0.02 -0,-0.01 -0,-0.01 -0.01,-0.02 -0,-0 -0.01,-0.01 -0.01,-0.01 -0.01,0 -0.01,0 -0.02,0.01 -0,0.01 -0,0.01 -0,0.02zm0.04 0.04l0 -0.01c-0,0.01 -0.01,0.01 -0.02,0.01 -0.01,0 -0.02,0 -0.02,-0 -0.01,-0 -0.01,-0.01 -0.02,-0.02 -0.01,-0.01 -0.01,-0.02 -0.01,-0.03 0,-0.02 0,-0.03 0.01,-0.04 0.01,-0.01 0.02,-0.01 0.03,-0.01 0.02,-0 0.02,0 0.03,0.01 0.01,0.01 0.02,0.02 0.02,0.04l0 0.05c0,0.02 -0.01,0.05 -0.05,0.05 -0.02,-0 -0.04,-0.01 -0.04,-0.03l0.03 0c0,0 0.01,0.01 0.01,0.01 0,0 0.01,0 0.01,0 0,-0 0.01,-0 0.01,-0.01 0,-0 0.01,-0.01 0.01,-0.02z"/>
   <path class="fil3" d="M1.07 0.55c-0,0.01 -0,0.01 -0.01,0.02 -0,0 -0.01,0 -0.02,0 -0,0 -0.01,-0 -0.01,-0 -0,-0 -0,-0.01 -0,-0.01 0,-0.01 0,-0.01 0.01,-0.01 0,-0 0.01,-0 0.01,-0l0.01 -0c0,-0 0.01,-0 0.01,-0 0,-0 0,-0 0.01,-0l0 0.01zm0.01 -0.06c-0.01,-0 -0.02,-0.01 -0.03,-0.01 -0.02,0 -0.03,0 -0.04,0.01 -0,0.01 -0.01,0.01 -0.01,0.02l0.03 0c0,-0 0,-0.01 0,-0.01 0,-0 0.01,-0 0.01,-0 0.01,0 0.01,0 0.01,0 0,0 0,0 0,0.01 0,0 -0,0.01 -0.01,0.01 -0,0 -0.01,0 -0.01,0l-0.01 0c-0.01,0 -0.02,0 -0.02,0.01 -0.01,0.01 -0.01,0.01 -0.01,0.03 0,0.01 0,0.02 0.01,0.02 0.01,0.01 0.01,0.01 0.02,0.01 0.06,0 0.06,-0.03 0.06,-0.04l0 -0.04c0,-0.01 -0,-0.02 -0.01,-0.02z"/>
   <path class="fil3" d="M1.28 0.56c-0,0.01 -0.01,0.01 -0.02,0.01 -0.01,0 -0.01,-0 -0.02,-0.01 -0,-0.01 -0.01,-0.01 -0.01,-0.02 0,-0.01 0,-0.02 0.01,-0.02 0,-0.01 0.01,-0.01 0.02,-0.01 0.01,0 0.01,0 0.02,0.01 0,0.01 0.01,0.01 0.01,0.02 0,0.01 -0,0.02 -0.01,0.02zm0.02 -0.06c-0.01,-0.01 -0.02,-0.02 -0.04,-0.02 -0.02,0 -0.03,0.01 -0.04,0.02 -0.01,0.01 -0.01,0.02 -0.01,0.04 0,0.01 0,0.03 0.01,0.04 0.01,0.01 0.02,0.02 0.04,0.02 0.02,0 0.03,-0.01 0.04,-0.02 0.01,-0.01 0.01,-0.02 0.01,-0.04 0,-0.01 -0,-0.03 -0.01,-0.04z"/>
  </g>
 </g>
</svg>
