<?xml version="1.0" encoding="UTF-8"?>
<!DOCTYPE svg PUBLIC "-//W3C//DTD SVG 1.1//EN" "http://www.w3.org/Graphics/SVG/1.1/DTD/svg11.dtd">
<!-- Creator: CorelDRAW 2020 (64 Bit) -->
<svg xmlns="http://www.w3.org/2000/svg" xml:space="preserve" width="3.5914mm" height="1.9899mm" version="1.1" style="shape-rendering:geometricPrecision; text-rendering:geometricPrecision; image-rendering:optimizeQuality; fill-rule:evenodd; clip-rule:evenodd"
viewBox="0 0 1.69 0.93"
 xmlns:xlink="http://www.w3.org/1999/xlink"
 xmlns:xodm="http://www.corel.com/coreldraw/odm/2003">
 <defs>
  <style type="text/css">
   <![CDATA[
    .str0 {stroke:#E6E6E6;stroke-width:0.04;stroke-miterlimit:22.9256}
    .fil0 {fill:none;fill-rule:nonzero}
    .fil2 {fill:#40C25A}
    .fil1 {fill:white}
   ]]>
  </style>
 </defs>
 <g id="Camada_x0020_1">
  <metadata id="CorelCorpID_0Corel-Layer"/>
  <g>
   <path class="fil0 str0" d="M0.13 0.01l1.43 0c0.07,0 0.12,0.05 0.12,0.12l0 0.68c0,0.07 -0.05,0.12 -0.12,0.12l-1.43 0c-0.07,0 -0.12,-0.05 -0.12,-0.12l0 -0.68c0,-0.07 0.05,-0.12 0.12,-0.12z"/>
   <path id="1" class="fil1" d="M0.13 0.01l1.43 0c0.07,0 0.12,0.05 0.12,0.12l0 0.68c0,0.07 -0.05,0.12 -0.12,0.12l-1.43 0c-0.07,0 -0.12,-0.05 -0.12,-0.12l0 -0.68c0,-0.07 0.05,-0.12 0.12,-0.12z"/>
  </g>
  <path class="fil2" d="M0.31 0.52c0.07,0 0.11,-0.04 0.11,-0.1 0,-0.06 -0.04,-0.1 -0.11,-0.1l-0.06 0 0 0.05 0.05 0c0.03,0 0.05,0.02 0.05,0.05 0,0.03 -0.02,0.05 -0.05,0.05l-0.05 0 0 -0.1 -0.06 0 0 0.23 0.06 0 0 -0.08 0.06 0z"/>
  <polygon class="fil2" points="0.46,0.42 0.46,0.6 0.52,0.6 0.52,0.42 "/>
  <polygon class="fil2" points="0.5,0.34 0.54,0.34 0.54,0.3 0.5,0.3 "/>
  <path class="fil2" d="M0.48 0.28l0.08 0 0 0.08 -0.08 0 0 -0.08zm-0.02 0.1l0.12 0 0 -0.12 -0.12 0 0 0.12z"/>
  <path class="fil2" d="M0.67 0.38c-0.06,-0 -0.11,0.04 -0.11,0.11 0,0.06 0.04,0.11 0.11,0.11 0.04,0 0.08,-0.02 0.09,-0.05l-0.04 -0.03c-0.01,0.02 -0.03,0.03 -0.05,0.03 -0.03,0 -0.05,-0.02 -0.05,-0.06 0,-0.03 0.02,-0.06 0.05,-0.06 0.02,0 0.04,0.01 0.05,0.02l0.04 -0.03c-0.02,-0.03 -0.05,-0.05 -0.09,-0.05z"/>
  <path class="fil2" d="M0.8 0.37l0 0.23 0.06 0 0 -0.08 0.06 0c0.07,0 0.11,-0.04 0.11,-0.1 0,-0.06 -0.04,-0.1 -0.11,-0.1l-0.06 0 0 0.05 0.05 0c0.03,0 0.05,0.02 0.05,0.05 0,0.03 -0.02,0.05 -0.05,0.05l-0.05 0 0 -0.1 -0.06 0z"/>
  <path class="fil2" d="M1.06 0.41l0.02 0.04c0.02,-0.01 0.04,-0.02 0.06,-0.02 0.03,0 0.04,0.01 0.04,0.04l0 0 -0.06 0c-0.05,0 -0.08,0.02 -0.08,0.06 0,0.04 0.03,0.07 0.07,0.07 0.03,0 0.05,-0.01 0.07,-0.03l0 0.02 0.06 0 0 -0.14c-0,-0.05 -0.03,-0.07 -0.09,-0.07 -0.04,0 -0.06,0.01 -0.1,0.02zm0.08 0.1l0.05 0 0 0.02c-0.01,0.02 -0.02,0.03 -0.05,0.03 -0.02,0 -0.03,-0.01 -0.03,-0.03 0,-0.02 0.01,-0.02 0.03,-0.02z"/>
  <polygon class="fil2" points="1.26,0.38 1.35,0.6 1.31,0.68 1.38,0.68 1.49,0.38 1.43,0.38 1.38,0.52 1.33,0.38 "/>
 </g>
</svg>
