<?xml version="1.0" encoding="UTF-8"?>
<!DOCTYPE svg PUBLIC "-//W3C//DTD SVG 1.1//EN" "http://www.w3.org/Graphics/SVG/1.1/DTD/svg11.dtd">
<!-- Creator: CorelDRAW 2020 (64 Bit) -->
<svg xmlns="http://www.w3.org/2000/svg" xml:space="preserve" width="3.5914mm" height="1.9899mm" version="1.1" style="shape-rendering:geometricPrecision; text-rendering:geometricPrecision; image-rendering:optimizeQuality; fill-rule:evenodd; clip-rule:evenodd"
viewBox="0 0 1.74 0.96"
 xmlns:xlink="http://www.w3.org/1999/xlink"
 xmlns:xodm="http://www.corel.com/coreldraw/odm/2003">
 <defs>
  <style type="text/css">
   <![CDATA[
    .str0 {stroke:#E6E6E6;stroke-width:0.04;stroke-miterlimit:22.9256}
    .fil0 {fill:none;fill-rule:nonzero}
    .fil3 {fill:#96989A}
    .fil4 {fill:#31BDAE}
    .fil2 {fill:#31BDAE}
    .fil1 {fill:white}
   ]]>
  </style>
 </defs>
 <g id="Camada_x0020_1">
  <metadata id="CorelCorpID_0Corel-Layer"/>
  <g>
   <path class="fil0 str0" d="M0.13 0.01l1.47 0c0.07,0 0.12,0.06 0.12,0.12l0 0.7c0,0.07 -0.06,0.12 -0.12,0.12l-1.47 0c-0.07,0 -0.12,-0.06 -0.12,-0.12l0 -0.7c0,-0.07 0.06,-0.12 0.12,-0.12z"/>
   <path id="1" class="fil1" d="M0.13 0.01l1.47 0c0.07,0 0.12,0.06 0.12,0.12l0 0.7c0,0.07 -0.06,0.12 -0.12,0.12l-1.47 0c-0.07,0 -0.12,-0.06 -0.12,-0.12l0 -0.7c0,-0.07 0.06,-0.12 0.12,-0.12z"/>
  </g>
  <g>
   <path class="fil2" d="M0.56 0.62l-0.08 0.08c-0.03,0.03 -0.08,0.03 -0.11,0l-0.08 -0.08c0.01,-0 0.03,-0 0.04,-0.01 0.01,-0 0.02,-0.01 0.02,-0.02l0.06 -0.06c0,-0 0.01,-0 0.01,-0 0,0 0.01,0 0.01,0l0.06 0.06c0.01,0.01 0.01,0.01 0.02,0.02 0.01,0 0.02,0 0.03,0.01zm-0.26 -0.23l0.08 -0.08c0.03,-0.03 0.08,-0.03 0.11,0l0.08 0.08c-0.01,0 -0.02,0 -0.03,0.01 -0.01,0 -0.02,0.01 -0.02,0.02l-0.06 0.06c-0,0 -0.01,0 -0.01,0 -0,0 -0.01,-0 -0.01,-0l-0.06 -0.06c-0.01,-0.01 -0.01,-0.01 -0.02,-0.02 -0.01,-0 -0.02,-0.01 -0.04,-0.01zm-0.06 0.06l0.04 -0.04c0.03,-0 0.05,-0 0.06,0 0.01,0 0.02,0.01 0.03,0.02l0 0c0.05,0.05 0.06,0.06 0.06,0.06l0 0c0,0 0,0 0.01,0 0,0 0.01,0 0.01,0 0,0 0.01,-0 0.01,-0 0,-0 0,-0 0.01,-0l0 0c0,-0 0.01,-0.01 0.06,-0.06l0 0c0.01,-0.01 0.01,-0.01 0.03,-0.02 0.01,-0 0.03,-0.01 0.05,-0l0.04 0.04c0.03,0.03 0.03,0.08 0,0.11l-0.04 0.04c-0.02,0 -0.04,0 -0.05,-0 -0.01,-0 -0.02,-0.01 -0.03,-0.02l0 0c-0.05,-0.05 -0.06,-0.06 -0.06,-0.06l0 -0c-0,-0 -0,-0 -0.01,-0 -0,-0 -0.01,-0 -0.01,-0 -0,0 -0.01,0 -0.01,0 -0,0 -0.01,0 -0.01,0l-0 0c0,0 -0.01,0.01 -0.06,0.06l0 0c-0.01,0.01 -0.02,0.01 -0.03,0.02 -0.01,0 -0.03,0.01 -0.06,0l-0.04 -0.04c-0.03,-0.03 -0.03,-0.08 0,-0.11z"/>
   <path class="fil3" d="M0.76 0.69c0.01,-0.01 0,-0.23 0,-0.27 0,-0.04 0.02,-0.07 0.05,-0.08 0.02,-0.01 0.11,-0.01 0.13,-0 0.03,0.01 0.06,0.04 0.06,0.08 0,0.05 0.01,0.08 -0.02,0.11 -0.03,0.03 -0.06,0.03 -0.11,0.03 -0.01,0 -0.06,-0 -0.07,0 -0,0 -0,0.01 -0,0.01 0,0 0.01,0 0.01,0 0.05,0 0.12,0.01 0.16,-0.01 0.03,-0.02 0.05,-0.04 0.05,-0.09 -0,-0.05 0.01,-0.08 -0.02,-0.11 -0.02,-0.03 -0.06,-0.04 -0.1,-0.04 -0.05,0 -0.08,-0.01 -0.12,0.02 -0.03,0.02 -0.04,0.05 -0.04,0.1l-0 0.24c0,0.01 0,0.02 0.01,0.01z"/>
   <path class="fil3" d="M1.39 0.41c0.01,-0.01 0.02,-0.02 0.04,-0.04 0.01,-0.01 0.02,-0.03 0.04,-0.03 0.02,-0.01 0.05,-0 0.06,-0.01 0,-0.02 -0.01,-0.01 -0.03,-0.01 -0.01,0 -0.02,0 -0.03,0 -0.03,0.01 -0.06,0.05 -0.08,0.07 -0.02,0.02 -0.03,0.03 -0.04,0.03 -0.01,-0 -0.07,-0.07 -0.08,-0.08 -0.01,-0.01 -0.02,-0.02 -0.05,-0.03 -0.01,-0 -0.02,-0 -0.04,-0 -0.01,-0 -0.02,0 -0.01,0.02 0.02,0 0.04,-0 0.07,0.01 0.01,0.01 0.06,0.06 0.07,0.07 0.01,0.01 0.02,0.03 0.04,0.03 0.02,0 0.03,-0.02 0.04,-0.03z"/>
   <path class="fil3" d="M1.16 0.57c0.01,0.01 0.05,0 0.07,-0 0.02,-0.01 0.06,-0.05 0.08,-0.07 0.02,-0.02 0.03,-0.03 0.04,-0.03 0.01,0 0.07,0.06 0.08,0.07 0.01,0.01 0.02,0.02 0.04,0.03 0.01,0 0.07,0.01 0.05,-0.01 -0,-0.01 -0.04,0 -0.06,-0.01 -0.01,-0.01 -0.07,-0.06 -0.08,-0.07 -0.01,-0.01 -0.02,-0.03 -0.05,-0.02 -0.03,0.01 -0.08,0.09 -0.12,0.1 -0.03,0.01 -0.06,-0.01 -0.06,0.02z"/>
   <path class="fil3" d="M1.03 0.34c0.04,0.01 0.07,-0.01 0.07,0.04l0 0.18c0,0.01 -0,0.02 0.01,0.02 0.01,0 0.01,-0.01 0.01,-0.02l0 -0.12c0,-0.05 0.01,-0.12 -0.05,-0.12 -0.02,0 -0.04,-0 -0.03,0.02z"/>
   <rect class="fil4" transform="matrix(0.0562739 -0.0562739 0.0450225 0.0450225 1.0419 0.274782)" width="0.51" height="0.64" rx="0.06" ry="0.06"/>
  </g>
 </g>
</svg>
